<?xml version="1.0"?>
<svg xmlns="http://www.w3.org/2000/svg" id="line" height="512" viewBox="0 0 64 64" width="512" class="hovered-paths"><g><g fill="#c4a2fc"><path d="m40.753 36.833a5.015 5.015 0 1 0 1.414 1.414l-3.46 3.46a1 1 0 0 1 -1.414-1.414z" data-original="#C4A2FC" class="hovered-path active-path" style="fill:#3E72B8" data-old_color="#C4A2FC"/><path d="m52 41a14.046 14.046 0 1 1 -4.846-10.568l4.946-4.948a21.081 21.081 0 1 0 1.416 1.416l-4.948 4.948a13.922 13.922 0 0 1 3.432 9.152z" data-original="#C4A2FC" class="hovered-path active-path" style="fill:#3E72B8" data-old_color="#C4A2FC"/><path d="m43.6 36.816a7.028 7.028 0 1 1 -1.416-1.416l3.557-3.557a12.027 12.027 0 1 0 1.414 1.414z" data-original="#C4A2FC" class="hovered-path active-path" style="fill:#3E72B8" data-old_color="#C4A2FC"/><path d="m58 26a5.015 5.015 0 1 0 -4.167-2.247l-1.733 1.731q.739.675 1.414 1.414l1.731-1.731a4.969 4.969 0 0 0 2.755.833z" data-original="#C4A2FC" class="hovered-path active-path" style="fill:#3E72B8" data-old_color="#C4A2FC"/></g><path d="m50.928 46.624c-.528-1.294-12.657-30.84-23.928-32.541v-2.083h12a1 1 0 0 0 .707-1.707l-3.292-3.293 3.293-3.293a1 1 0 0 0 -.708-1.707h-13a1 1 0 0 0 -1 1v11.083c-11.269 1.701-23.4 31.247-23.925 32.541a1 1 0 0 0 .925 1.376h48a1 1 0 0 0 .928-1.376zm-16.634-40.331a1 1 0 0 0 0 1.414l2.293 2.293h-9.587v-6h9.586zm-8.294 9.707c2.6 0 5.442 2.14 8.237 5.349l-1.613 1.612a3.217 3.217 0 0 1 -3.937.485 5.212 5.212 0 0 0 -5.375 0 3.22 3.22 0 0 1 -3.937-.485l-1.612-1.612c2.796-3.209 5.637-5.349 8.237-5.349zm-22.5 30c2.542-5.972 7.586-16.267 12.982-23.1l1.48 1.48a5.218 5.218 0 0 0 6.381.786 3.215 3.215 0 0 1 3.316 0 5.211 5.211 0 0 0 6.38-.786l1.481-1.48c5.395 6.833 10.439 17.128 12.98 23.1z" fill="#151a6a" data-original="#151A6A" class=""/></g> </svg>
