<?xml version="1.0"?>
<svg xmlns="http://www.w3.org/2000/svg" id="line" height="512" viewBox="0 0 64 64" width="512" class="hovered-paths"><g><g fill="#c4a2fc"><path d="m16.295 52h17.41l-.6-7h-16.21z" data-original="#C4A2FC" class="hovered-path active-path" style="fill:#3E72B8" data-old_color="#C4A2FC"/><path d="m36.58 38h-23.16l2.857 5h17.446z" data-original="#C4A2FC" class="hovered-path active-path" style="fill:#3E72B8" data-old_color="#C4A2FC"/><path d="m34 54h-18a3 3 0 0 0 -3 3v5a1 1 0 0 0 1 1h22a1 1 0 0 0 1-1v-5a3 3 0 0 0 -3-3z" data-original="#C4A2FC" class="hovered-path active-path" style="fill:#3E72B8" data-old_color="#C4A2FC"/><path d="m36 27h-4a1 1 0 0 0 -1 1v3h-3v-3a1 1 0 0 0 -1-1h-4a1 1 0 0 0 -1 1v3h-3v-3a1 1 0 0 0 -1-1h-4a1 1 0 0 0 -1 1v8h24v-8a1 1 0 0 0 -1-1z" data-original="#C4A2FC" class="hovered-path active-path" style="fill:#3E72B8" data-old_color="#C4A2FC"/><path d="m43 39h16a2 2 0 0 0 2-2v-3a2 2 0 0 0 -2-2h-16a2 2 0 0 0 -2 2v3a2 2 0 0 0 2 2z" data-original="#C4A2FC" class="hovered-path active-path" style="fill:#3E72B8" data-old_color="#C4A2FC"/><path d="m43.623 41-1.26 11h17.274l-1.26-11z" data-original="#C4A2FC" class="hovered-path active-path" style="fill:#3E72B8" data-old_color="#C4A2FC"/><path d="m46.964 30h8.072a3.921 3.921 0 0 0 3.964-3.789v-.086c0-3.5-4-7.212-6.148-8.961a2.491 2.491 0 0 0 -1.2-4.082 2.493 2.493 0 0 0 -2.5 4.082c-2.152 1.749-6.152 5.464-6.152 8.961v.086a3.921 3.921 0 0 0 3.964 3.789z" data-original="#C4A2FC" class="hovered-path active-path" style="fill:#3E72B8" data-old_color="#C4A2FC"/><path d="m60 54h-18a3 3 0 0 0 -3 3v5a1 1 0 0 0 1 1h22a1 1 0 0 0 1-1v-5a3 3 0 0 0 -3-3z" data-original="#C4A2FC" class="hovered-path active-path" style="fill:#3E72B8" data-old_color="#C4A2FC"/></g><path d="m40 1h-36a3 3 0 0 0 -3 3v36a3 3 0 0 0 3 3h36a3 3 0 0 0 3-3v-36a3 3 0 0 0 -3-3zm1 39a1 1 0 0 1 -1 1h-36a1 1 0 0 1 -1-1v-36a1 1 0 0 1 1-1h36a1 1 0 0 1 1 1z" fill="#151a6a" data-original="#151A6A" class=""/><path d="m32.286 12.593-1.215 3.036a1 1 0 1 0 1.858.742l2-5a1.021 1.021 0 0 0 -.329-1.171l-4-3a1 1 0 0 0 -1.2 1.6l2.439 1.829a34.4 34.4 0 0 0 -22.827 25.215 1 1 0 0 0 1.976.313 32.372 32.372 0 0 1 21.298-23.564z" fill="#151a6a" data-original="#151A6A" class=""/><path d="m34.707 20.293a1 1 0 0 0 -1.414 0l-2.293 2.293-2.293-2.293a1 1 0 0 0 -1.414 1.414l2.293 2.293-2.293 2.293a1 1 0 0 0 1.414 1.414l2.293-2.293 2.293 2.293a1 1 0 0 0 1.414-1.414l-2.293-2.293 2.293-2.293a1 1 0 0 0 0-1.414z" fill="#151a6a" data-original="#151A6A" class=""/><path d="m13.5 17a4.5 4.5 0 1 0 -4.5-4.5 4.505 4.505 0 0 0 4.5 4.5zm0-7a2.5 2.5 0 1 1 -2.5 2.5 2.5 2.5 0 0 1 2.5-2.5z" fill="#151a6a" data-original="#151A6A" class=""/><path d="m21.5 29a4.5 4.5 0 1 0 4.5 4.5 4.505 4.505 0 0 0 -4.5-4.5zm0 7a2.5 2.5 0 1 1 2.5-2.5 2.5 2.5 0 0 1 -2.5 2.5z" fill="#151a6a" data-original="#151A6A" class=""/></g> </svg>
