<?xml version="1.0"?>
<svg xmlns="http://www.w3.org/2000/svg" id="line" height="512" viewBox="0 0 64 64" width="512" class="hovered-paths"><g><path d="m62.8 31.394-16-21a1.036 1.036 0 0 0 -1.592 0l-16 21a1 1 0 0 0 .792 1.606h7v26a1 1 0 0 0 1 1h16a1 1 0 0 0 1-1v-26h7a1 1 0 0 0 .8-1.606zm-10.8 24.606a1 1 0 0 1 -1 1h-4a1 1 0 1 1 0-2h3v-3a1 1 0 0 1 2 0z" fill="#c4a2fc" data-original="#C4A2FC" class="hovered-path active-path" style="fill:#3E72B8" data-old_color="#c4a2fc"/><g fill="#151a6a"><path d="m50.707 29.293-10-10a20.821 20.821 0 0 0 -29.412 0l-10 10a1 1 0 0 0 0 1.414l10 10a20.82 20.82 0 0 0 29.412 0l10-10a1 1 0 0 0 0-1.414zm-11.415 10a18.821 18.821 0 0 1 -26.584 0l-9.294-9.293 9.294-9.294a18.821 18.821 0 0 1 26.584 0l9.294 9.294z" data-original="#151A6A" class=""/><path d="m26 26a4 4 0 1 0 4 4 4 4 0 0 0 -4-4zm0 6a2 2 0 1 1 2-2 2 2 0 0 1 -2 2z" data-original="#151A6A" class=""/><path d="m38 29h-1.051a11.01 11.01 0 0 0 -9.949-9.949v-1.051a1 1 0 0 0 -2 0v1.051a11.01 11.01 0 0 0 -9.949 9.949h-1.051a1 1 0 0 0 0 2h1.051a11.01 11.01 0 0 0 9.949 9.949v1.051a1 1 0 0 0 2 0v-1.051a11.01 11.01 0 0 0 9.949-9.949h1.051a1 1 0 0 0 0-2zm-11 9.941v-.941a1 1 0 0 0 -2 0v.941a9.012 9.012 0 0 1 -7.941-7.941h.941a1 1 0 0 0 0-2h-.941a9.012 9.012 0 0 1 7.941-7.941v.941a1 1 0 0 0 2 0v-.941a9.012 9.012 0 0 1 7.941 7.941h-.941a1 1 0 0 0 0 2h.941a9.012 9.012 0 0 1 -7.941 7.941z" data-original="#151A6A" class=""/><path d="m1.476 21.852a1 1 0 0 0 1.376-.328c.077-.124 7.884-12.524 23.148-12.524 15.227 0 23.071 12.4 23.149 12.525a1 1 0 0 0 1.7-1.049 30.417 30.417 0 0 0 -7.395-7.695l3.324-4.156a1 1 0 1 0 -1.562-1.25l-3.413 4.266a28.807 28.807 0 0 0 -14.803-4.616v-5.025a1 1 0 0 0 -2 0v5.025a28.807 28.807 0 0 0 -14.806 4.616l-3.413-4.266a1 1 0 0 0 -1.562 1.25l3.325 4.156a30.374 30.374 0 0 0 -7.395 7.695 1 1 0 0 0 .327 1.376z" data-original="#151A6A" class=""/></g></g> </svg>
